<?xml version="1.0" encoding="utf-8"?>
<!-- Generator: Adobe Illustrator 16.0.0, SVG Export Plug-In . SVG Version: 6.00 Build 0)  -->
<!DOCTYPE svg PUBLIC "-//W3C//DTD SVG 1.1//EN" "http://www.w3.org/Graphics/SVG/1.1/DTD/svg11.dtd">
<svg version="1.1"
	 id="svg2" xmlns:dc="http://purl.org/dc/elements/1.1/" xmlns:cc="http://creativecommons.org/ns#" xmlns:rdf="http://www.w3.org/1999/02/22-rdf-syntax-ns#" xmlns:svg="http://www.w3.org/2000/svg" xmlns:sodipodi="http://sodipodi.sourceforge.net/DTD/sodipodi-0.dtd" xmlns:inkscape="http://www.inkscape.org/namespaces/inkscape" sodipodi:docname="calanitzador3.svg" inkscape:version="0.48.2 r9819"
	 xmlns="http://www.w3.org/2000/svg" xmlns:xlink="http://www.w3.org/1999/xlink" x="0px" y="0px" width="595.277px"
	 height="841.89px" viewBox="0 0 595.277 841.89" enable-background="new 0 0 595.277 841.89" xml:space="preserve">
<sodipodi:namedview  inkscape:cy="293.27289" inkscape:cx="308.43721" inkscape:zoom="1.5857387" showgrid="false" id="namedview467" guidetolerance="10" gridtolerance="10" objecttolerance="10" borderopacity="1" bordercolor="#666666" pagecolor="#ffffff" inkscape:current-layer="svg2" inkscape:window-maximized="1" inkscape:window-y="-8" inkscape:pageopacity="0" inkscape:window-x="-8" inkscape:window-height="706" inkscape:window-width="1366" inkscape:pageshadow="2">
	</sodipodi:namedview>
<g id="Background">
</g>
<g id="Guides">
</g>
<g id="g280" transform="translate(0,-174.7992)">
	
		<linearGradient id="path289_1_" gradientUnits="userSpaceOnUse" x1="1970.7202" y1="2282.4062" x2="1977.5547" y2="2086.6936" gradientTransform="matrix(1 0 0 -1 -1683.5 2576.6892)">
		<stop  offset="0" style="stop-color:#939598"/>
		<stop  offset="0.9766" style="stop-color:#E6E7E8"/>
		<stop  offset="1" style="stop-color:#E6E7E8"/>
	</linearGradient>
	<path id="path289" inkscape:connector-curvature="0" fill="url(#path289_1_)" d="M384.382,458.816
		c0.057,7.272-2.508,12.48-7.693,15.622c-5.201,3.151-13.477,4.688-24.824,4.611h-36.387c-6.666,0.023-11.729,0.994-15.186,2.912
		c-3.458,1.918-8.569,4.641-10.083,8.168l0,0c-1.608-3.527-6.779-6.25-10.258-8.168s-8.549-2.889-15.211-2.912H228.76
		c-11.445,0.076-19.779-1.46-25.002-4.611c-5.224-3.151-7.796-8.381-7.72-15.688h0.342c-0.532-1.868-0.818-3.85-0.818-5.901V317.333
		c0-11.333,8.728-20.52,19.494-20.52h150.67c10.768,0,19.494,9.187,19.494,20.52v135.516
		C385.22,454.925,384.927,456.928,384.382,458.816z"/>
	
		<linearGradient id="ellipse296_1_" gradientUnits="userSpaceOnUse" x1="1980.0493" y1="2140.1875" x2="1979.5015" y2="2124.4958" gradientTransform="matrix(1 0 0 -1 -1683.5 2576.6892)">
		<stop  offset="0" style="stop-color:#A7A9AC"/>
		<stop  offset="1" style="stop-color:#D5D7D8"/>
	</linearGradient>
	
		<ellipse id="ellipse296" sodipodi:cx="296.276" sodipodi:cy="444.34601" sodipodi:rx="53.144001" sodipodi:ry="7.631" fill="url(#ellipse296_1_)" cx="296.276" cy="444.346" rx="53.144" ry="7.631">
	</ellipse>
	<g id="g298">
		<path id="path300" inkscape:connector-curvature="0" d="M212.504,519.469c0,0.592-0.133,1.225-0.398,1.897
			c-0.267,0.674-0.671,1.314-1.216,1.924s-1.23,1.1-2.059,1.471s-1.761,0.558-2.798,0.558c-2.205,0-3.927-0.856-5.166-2.571
			c-1.239-1.714-1.858-4.012-1.858-6.893c0-1.952,0.283-3.678,0.851-5.177s1.388-2.658,2.46-3.478
			c1.073-0.818,2.354-1.229,3.845-1.229c0.924,0,1.771,0.181,2.542,0.541c0.771,0.361,1.426,0.826,1.961,1.396
			c0.536,0.57,0.945,1.179,1.229,1.824c0.284,0.646,0.426,1.249,0.426,1.809c0,0.569-0.159,1.053-0.478,1.448
			c-0.319,0.395-0.704,0.594-1.157,0.594c-0.296,0-0.542-0.103-0.738-0.306c-0.196-0.203-0.416-0.531-0.66-0.983
			c-0.436-0.882-0.891-1.544-1.366-1.985c-0.475-0.44-1.078-0.661-1.81-0.661c-1.055,0-1.904,0.548-2.549,1.646
			c-0.646,1.097-0.968,2.597-0.968,4.5c0,0.895,0.083,1.716,0.248,2.465c0.166,0.748,0.405,1.387,0.719,1.915
			c0.314,0.528,0.693,0.929,1.138,1.202c0.444,0.271,0.933,0.408,1.464,0.408c0.715,0,1.327-0.221,1.837-0.662
			c0.51-0.44,0.961-1.113,1.353-2.02c0.218-0.533,0.453-0.951,0.706-1.253s0.563-0.452,0.928-0.452c0.436,0,0.798,0.22,1.085,0.661
			C212.361,518.5,212.504,518.97,212.504,519.469z"/>
		<path id="path302" inkscape:connector-curvature="0" d="M224.65,522.683c-0.862,0.891-1.697,1.559-2.504,2.004
			c-0.806,0.445-1.71,0.668-2.712,0.668c-0.915,0-1.72-0.242-2.413-0.724c-0.692-0.481-1.227-1.136-1.602-1.96
			c-0.375-0.824-0.562-1.719-0.562-2.684c0-1.301,0.31-2.41,0.93-3.328c0.619-0.917,1.471-1.533,2.553-1.846
			c0.227-0.07,0.788-0.227,1.685-0.471c0.897-0.244,1.666-0.467,2.307-0.67c0.64-0.203,1.334-0.45,2.083-0.74
			c-0.043-1.254-0.233-2.175-0.568-2.762c-0.336-0.586-1.03-0.879-2.085-0.879c-0.906,0-1.588,0.168-2.046,0.504
			c-0.458,0.338-0.85,0.842-1.177,1.516c-0.327,0.674-0.558,1.118-0.693,1.333c-0.135,0.215-0.425,0.322-0.869,0.322
			c-0.4,0-0.747-0.171-1.039-0.515c-0.292-0.343-0.438-0.781-0.438-1.316c0-0.838,0.222-1.652,0.667-2.442
			c0.444-0.791,1.138-1.442,2.079-1.954c0.941-0.512,2.113-0.768,3.518-0.768c1.568,0,2.802,0.247,3.699,0.741
			c0.898,0.494,1.533,1.276,1.903,2.346c0.37,1.07,0.556,2.488,0.556,4.256c0,1.116-0.002,2.063-0.007,2.843
			c-0.004,0.779-0.011,1.646-0.02,2.599c0,0.894,0.111,1.825,0.333,2.794c0.223,0.969,0.334,1.593,0.334,1.871
			c0,0.488-0.173,0.932-0.518,1.332c-0.344,0.4-0.734,0.602-1.17,0.602c-0.367,0-0.729-0.229-1.086-0.686
			S225.051,523.55,224.65,522.683L224.65,522.683z M224.415,515.788c-0.522,0.256-1.282,0.526-2.279,0.812
			c-0.997,0.286-1.688,0.495-2.07,0.629c-0.384,0.134-0.749,0.396-1.098,0.786c-0.349,0.39-0.522,0.934-0.522,1.632
			c0,0.722,0.205,1.336,0.614,1.843c0.409,0.506,0.944,0.76,1.606,0.76c0.705,0,1.356-0.207,1.953-0.621
			c0.597-0.412,1.034-0.945,1.313-1.597c0.322-0.722,0.483-1.909,0.483-3.563V515.788L224.415,515.788z"/>
		<path id="path304" inkscape:connector-curvature="0" d="M231.198,506.437h0.392v-2.86c0-0.768,0.016-1.369,0.046-1.806
			c0.03-0.436,0.115-0.811,0.255-1.125c0.139-0.326,0.339-0.59,0.6-0.793c0.261-0.204,0.552-0.306,0.874-0.306
			c0.452,0,0.86,0.228,1.226,0.681c0.243,0.303,0.397,0.672,0.463,1.107c0.066,0.435,0.098,1.055,0.098,1.857v3.244h1.308
			c0.505,0,0.891,0.159,1.157,0.478c0.266,0.319,0.398,0.728,0.398,1.227c0,0.638-0.189,1.085-0.568,1.339
			c-0.38,0.256-0.922,0.383-1.628,0.383h-0.667v8.748c0,0.744,0.02,1.316,0.06,1.717c0.039,0.4,0.144,0.726,0.313,0.976
			s0.446,0.374,0.83,0.374c0.209,0,0.492-0.049,0.85-0.147c0.358-0.098,0.636-0.147,0.836-0.147c0.288,0,0.547,0.153,0.778,0.461
			c0.231,0.309,0.347,0.688,0.347,1.142c0,0.767-0.313,1.353-0.941,1.76c-0.627,0.406-1.529,0.61-2.706,0.61
			c-1.113,0-1.957-0.25-2.531-0.75c-0.573-0.5-0.949-1.19-1.128-2.073c-0.178-0.884-0.268-2.063-0.268-3.538v-9.131h-0.47
			c-0.515,0-0.907-0.162-1.177-0.486c-0.271-0.325-0.405-0.737-0.405-1.235c0-0.499,0.142-0.907,0.425-1.227
			C230.246,506.596,230.658,506.437,231.198,506.437L231.198,506.437z"/>
		<path id="path306" inkscape:connector-curvature="0" d="M249.526,522.683c-0.862,0.891-1.697,1.559-2.504,2.004
			c-0.806,0.445-1.71,0.668-2.713,0.668c-0.915,0-1.719-0.242-2.412-0.724c-0.692-0.481-1.227-1.136-1.602-1.96
			c-0.375-0.824-0.563-1.719-0.563-2.684c0-1.301,0.311-2.41,0.93-3.328c0.62-0.917,1.471-1.533,2.554-1.846
			c0.227-0.07,0.788-0.227,1.685-0.471c0.897-0.244,1.666-0.467,2.306-0.67c0.641-0.203,1.335-0.45,2.084-0.74
			c-0.044-1.254-0.233-2.175-0.568-2.762c-0.336-0.586-1.031-0.879-2.086-0.879c-0.906,0-1.588,0.168-2.045,0.504
			c-0.458,0.338-0.851,0.842-1.177,1.516c-0.327,0.674-0.558,1.118-0.693,1.333c-0.135,0.215-0.425,0.322-0.869,0.322
			c-0.401,0-0.747-0.171-1.039-0.515c-0.292-0.343-0.438-0.781-0.438-1.316c0-0.838,0.223-1.652,0.667-2.442
			c0.445-0.791,1.138-1.442,2.079-1.954c0.941-0.512,2.114-0.768,3.518-0.768c1.569,0,2.803,0.247,3.7,0.741
			c0.898,0.494,1.532,1.276,1.903,2.346c0.37,1.07,0.556,2.488,0.556,4.256c0,1.116-0.003,2.063-0.007,2.843
			c-0.004,0.78-0.011,1.646-0.02,2.599c0,0.894,0.11,1.825,0.333,2.794c0.222,0.969,0.333,1.593,0.333,1.871
			c0,0.488-0.172,0.932-0.517,1.332c-0.345,0.4-0.734,0.602-1.171,0.602c-0.366,0-0.728-0.229-1.086-0.686
			S249.927,523.55,249.526,522.683L249.526,522.683z M249.291,515.788c-0.522,0.256-1.282,0.526-2.279,0.812
			c-0.997,0.286-1.688,0.495-2.07,0.629c-0.384,0.134-0.75,0.396-1.098,0.786c-0.349,0.39-0.522,0.934-0.522,1.632
			c0,0.722,0.204,1.336,0.614,1.843c0.409,0.506,0.944,0.76,1.606,0.76c0.705,0,1.356-0.207,1.953-0.621
			c0.596-0.412,1.034-0.945,1.313-1.597c0.322-0.722,0.483-1.909,0.483-3.563V515.788L249.291,515.788z"/>
		<path id="path308" inkscape:connector-curvature="0" d="M256.439,522.462v-20.629c0-0.953,0.158-1.674,0.476-2.161
			c0.318-0.487,0.745-0.731,1.284-0.731c0.539,0,0.975,0.24,1.305,0.723s0.496,1.205,0.496,2.17v20.629
			c0,0.964-0.168,1.688-0.503,2.169c-0.334,0.481-0.767,0.724-1.298,0.724c-0.521,0-0.945-0.25-1.271-0.75
			C256.602,524.106,256.439,523.391,256.439,522.462L256.439,522.462z"/>
		<path id="path310" inkscape:connector-curvature="0" d="M272.722,522.683c-0.862,0.891-1.697,1.559-2.503,2.004
			c-0.807,0.445-1.711,0.668-2.713,0.668c-0.915,0-1.72-0.242-2.412-0.724c-0.693-0.481-1.228-1.136-1.602-1.96
			c-0.375-0.824-0.563-1.719-0.563-2.684c0-1.301,0.31-2.41,0.93-3.328c0.62-0.917,1.471-1.533,2.553-1.846
			c0.227-0.07,0.788-0.227,1.686-0.471c0.896-0.244,1.665-0.467,2.306-0.67c0.64-0.203,1.334-0.45,2.083-0.74
			c-0.043-1.254-0.232-2.175-0.568-2.762c-0.336-0.586-1.03-0.879-2.085-0.879c-0.906,0-1.588,0.168-2.046,0.504
			c-0.458,0.338-0.85,0.842-1.177,1.516c-0.326,0.674-0.558,1.118-0.692,1.333c-0.136,0.215-0.425,0.322-0.87,0.322
			c-0.4,0-0.747-0.171-1.039-0.515c-0.291-0.343-0.438-0.781-0.438-1.316c0-0.838,0.223-1.652,0.667-2.442
			c0.444-0.791,1.138-1.442,2.079-1.954c0.941-0.512,2.114-0.768,3.518-0.768c1.568,0,2.802,0.247,3.7,0.741
			c0.897,0.494,1.532,1.276,1.902,2.346c0.37,1.07,0.556,2.488,0.556,4.256c0,1.116-0.002,2.063-0.006,2.843
			c-0.005,0.779-0.012,1.646-0.021,2.599c0,0.894,0.111,1.825,0.333,2.794c0.223,0.969,0.334,1.593,0.334,1.871
			c0,0.488-0.172,0.932-0.517,1.332c-0.345,0.4-0.735,0.602-1.171,0.602c-0.366,0-0.729-0.229-1.086-0.686
			C273.503,524.212,273.125,523.55,272.722,522.683L272.722,522.683z M272.487,515.788c-0.522,0.256-1.282,0.526-2.279,0.812
			s-1.687,0.495-2.07,0.629c-0.383,0.134-0.749,0.396-1.098,0.786c-0.348,0.39-0.522,0.934-0.522,1.632
			c0,0.722,0.205,1.336,0.614,1.843c0.409,0.506,0.945,0.76,1.606,0.76c0.706,0,1.356-0.207,1.953-0.621
			c0.597-0.412,1.034-0.945,1.313-1.597c0.322-0.722,0.483-1.909,0.483-3.563V515.788L272.487,515.788z"/>
		<path id="path312" inkscape:connector-curvature="0" d="M282.867,508.639v0.575c0.628-1.104,1.314-1.914,2.061-2.432
			c0.745-0.516,1.602-0.774,2.569-0.774c0.941,0,1.783,0.272,2.524,0.819c0.74,0.545,1.294,1.318,1.66,2.317
			c0.236,0.581,0.389,1.208,0.459,1.882c0.069,0.674,0.104,1.534,0.104,2.58v8.854c0,0.953-0.164,1.674-0.491,2.162
			s-0.753,0.732-1.276,0.732c-0.532,0-0.964-0.25-1.296-0.75c-0.331-0.5-0.497-1.215-0.497-2.145v-7.93c0-1.569-0.163-2.77-0.49-3.6
			c-0.327-0.831-0.979-1.246-1.954-1.246c-0.637,0-1.217,0.252-1.739,0.758c-0.522,0.506-0.906,1.199-1.15,2.083
			c-0.174,0.709-0.261,2.034-0.261,3.974v5.961c0,0.965-0.168,1.688-0.503,2.17s-0.767,0.725-1.298,0.725
			c-0.513,0-0.934-0.25-1.265-0.75c-0.33-0.5-0.495-1.215-0.495-2.145v-13.751c0-0.906,0.147-1.583,0.443-2.03
			c0.295-0.447,0.699-0.671,1.213-0.671c0.313,0,0.596,0.099,0.848,0.296c0.252,0.197,0.454,0.494,0.606,0.889
			C282.791,507.587,282.867,508.069,282.867,508.639L282.867,508.639z"/>
		<path id="path314" inkscape:connector-curvature="0" d="M299.367,508.709v13.751c0,0.953-0.168,1.674-0.508,2.162
			s-0.77,0.732-1.292,0.732s-0.945-0.25-1.271-0.75c-0.326-0.5-0.489-1.215-0.489-2.145v-13.611c0-0.941,0.163-1.65,0.489-2.127
			c0.326-0.476,0.75-0.714,1.271-0.714s0.952,0.238,1.292,0.714C299.199,507.198,299.367,507.861,299.367,508.709L299.367,508.709z
			 M297.607,503.794c-0.497,0-0.92-0.202-1.271-0.607c-0.353-0.406-0.529-0.979-0.529-1.721c0-0.672,0.181-1.226,0.542-1.66
			c0.36-0.434,0.78-0.651,1.259-0.651c0.46,0,0.868,0.197,1.225,0.591c0.357,0.395,0.535,0.968,0.535,1.721
			c0,0.73-0.174,1.301-0.521,1.712S298.084,503.794,297.607,503.794L297.607,503.794z"/>
		<path id="path316" inkscape:connector-curvature="0" d="M303.271,506.437h0.393v-2.86c0-0.768,0.016-1.369,0.045-1.806
			c0.031-0.436,0.115-0.811,0.256-1.125c0.141-0.326,0.338-0.59,0.6-0.793c0.262-0.204,0.553-0.306,0.875-0.306
			c0.451,0,0.859,0.228,1.225,0.681c0.244,0.303,0.398,0.672,0.465,1.107c0.064,0.436,0.098,1.055,0.098,1.857v3.244h1.307
			c0.506,0,0.893,0.159,1.158,0.478s0.396,0.728,0.396,1.227c0,0.638-0.188,1.085-0.566,1.339c-0.381,0.256-0.924,0.383-1.629,0.383
			h-0.666v8.748c0,0.744,0.02,1.316,0.059,1.717s0.145,0.726,0.312,0.976c0.17,0.25,0.447,0.374,0.83,0.374
			c0.209,0,0.492-0.049,0.852-0.147c0.357-0.098,0.635-0.147,0.836-0.147c0.287,0,0.547,0.153,0.777,0.461
			c0.23,0.309,0.348,0.688,0.348,1.142c0,0.767-0.314,1.353-0.941,1.76c-0.627,0.406-1.529,0.61-2.705,0.61
			c-1.113,0-1.959-0.25-2.531-0.75c-0.574-0.5-0.949-1.19-1.129-2.073c-0.178-0.884-0.268-2.063-0.268-3.538v-9.131h-0.471
			c-0.516,0-0.906-0.162-1.178-0.486c-0.27-0.325-0.404-0.737-0.404-1.235c0-0.499,0.143-0.907,0.426-1.227
			C302.32,506.596,302.732,506.437,303.271,506.437L303.271,506.437z"/>
		<path id="path318" inkscape:connector-curvature="0" d="M322.273,511.467l-6.535,9.747h6.992c0.566,0,0.992,0.177,1.281,0.531
			c0.287,0.354,0.432,0.811,0.432,1.367c0,0.535-0.143,0.971-0.426,1.309c-0.281,0.336-0.713,0.505-1.287,0.505h-9.674
			c-0.68,0-1.188-0.198-1.521-0.593c-0.336-0.395-0.504-0.936-0.504-1.621c0-0.406,0.117-0.816,0.354-1.229
			c0.234-0.413,0.725-1.171,1.463-2.275c0.785-1.162,1.498-2.214,2.139-3.155c0.641-0.942,1.234-1.822,1.783-2.642
			c0.551-0.82,1.006-1.514,1.367-2.084c0.361-0.569,0.65-1.058,0.869-1.465h-5.307c-0.732,0-1.285-0.087-1.66-0.261
			s-0.564-0.632-0.564-1.374c0-0.545,0.143-0.979,0.426-1.305c0.283-0.324,0.688-0.486,1.209-0.486h8.195
			c0.76,0,1.34,0.147,1.746,0.443c0.404,0.296,0.607,0.827,0.607,1.593c0,0.255-0.039,0.519-0.117,0.792
			c-0.078,0.272-0.166,0.496-0.262,0.67c-0.098,0.174-0.229,0.387-0.393,0.636C322.72,510.819,322.517,511.118,322.273,511.467
			L322.273,511.467z"/>
		<path id="path320" inkscape:connector-curvature="0" d="M335.589,522.683c-0.863,0.891-1.697,1.559-2.504,2.004
			c-0.805,0.445-1.709,0.668-2.713,0.668c-0.914,0-1.719-0.242-2.412-0.724c-0.693-0.482-1.227-1.136-1.602-1.96
			c-0.375-0.824-0.562-1.719-0.562-2.684c0-1.301,0.311-2.41,0.93-3.328c0.619-0.917,1.471-1.533,2.555-1.846
			c0.225-0.07,0.787-0.227,1.684-0.471c0.898-0.244,1.666-0.467,2.307-0.67c0.641-0.203,1.336-0.45,2.084-0.74
			c-0.045-1.254-0.232-2.175-0.568-2.762c-0.336-0.586-1.031-0.879-2.086-0.879c-0.906,0-1.588,0.168-2.045,0.504
			c-0.457,0.338-0.852,0.842-1.178,1.516c-0.326,0.674-0.559,1.118-0.691,1.333c-0.135,0.215-0.426,0.322-0.869,0.322
			c-0.402,0-0.748-0.171-1.039-0.515c-0.293-0.343-0.438-0.781-0.438-1.316c0-0.838,0.223-1.652,0.666-2.442
			c0.445-0.791,1.139-1.442,2.08-1.954c0.939-0.512,2.113-0.768,3.518-0.768c1.568,0,2.803,0.247,3.699,0.741
			c0.898,0.494,1.533,1.276,1.902,2.346c0.371,1.07,0.557,2.488,0.557,4.256c0,1.116-0.002,2.063-0.006,2.843
			c-0.006,0.779-0.012,1.646-0.021,2.599c0,0.894,0.111,1.825,0.334,2.794c0.221,0.969,0.332,1.593,0.332,1.871
			c0,0.488-0.172,0.932-0.516,1.332c-0.346,0.4-0.734,0.602-1.172,0.602c-0.365,0-0.729-0.229-1.086-0.686
			S335.992,523.55,335.589,522.683L335.589,522.683z M335.355,515.788c-0.521,0.256-1.283,0.526-2.279,0.812
			c-0.996,0.285-1.688,0.495-2.07,0.629c-0.383,0.134-0.75,0.396-1.098,0.786c-0.35,0.39-0.521,0.934-0.521,1.632
			c0,0.722,0.203,1.336,0.613,1.843c0.41,0.506,0.945,0.76,1.607,0.76c0.703,0,1.355-0.207,1.951-0.621
			c0.598-0.412,1.033-0.945,1.312-1.597c0.322-0.722,0.482-1.909,0.482-3.563v-0.681H335.355z"/>
		<path id="path322" inkscape:connector-curvature="0" d="M352.275,522.636v-0.471c-0.48,0.732-0.953,1.327-1.418,1.786
			c-0.469,0.459-0.973,0.808-1.518,1.046s-1.139,0.357-1.785,0.357c-0.854,0-1.645-0.242-2.371-0.725
			c-0.729-0.481-1.357-1.17-1.889-2.064c-0.533-0.895-0.936-1.946-1.211-3.154c-0.273-1.209-0.41-2.516-0.41-3.922
			c0-2.975,0.545-5.292,1.633-6.953c1.09-1.662,2.523-2.492,4.303-2.492c1.027,0,1.895,0.235,2.6,0.707
			c0.707,0.473,1.395,1.199,2.066,2.179v-7.026c0-0.976,0.145-1.714,0.438-2.214c0.291-0.499,0.707-0.749,1.248-0.749
			s0.957,0.229,1.248,0.688c0.293,0.459,0.438,1.136,0.438,2.03v20.978c0,0.906-0.154,1.586-0.469,2.039s-0.721,0.68-1.217,0.68
			c-0.488,0-0.891-0.236-1.209-0.707c-0.318-0.471-0.479-1.142-0.479-2.013H352.275z M345.259,515.653
			c0,1.289,0.15,2.385,0.451,3.291c0.301,0.905,0.711,1.587,1.234,2.045c0.521,0.459,1.092,0.688,1.711,0.688
			c0.627,0,1.197-0.217,1.717-0.652c0.52-0.435,0.932-1.103,1.242-2.002c0.309-0.899,0.463-2.022,0.463-3.369
			c0-1.266-0.154-2.354-0.463-3.265c-0.311-0.911-0.729-1.607-1.254-2.089c-0.527-0.482-1.105-0.723-1.73-0.723
			c-0.654,0-1.236,0.246-1.75,0.74c-0.514,0.492-0.912,1.201-1.195,2.123C345.402,513.364,345.259,514.435,345.259,515.653z"/>
		<path id="path324" inkscape:connector-curvature="0" d="M372.638,515.689c0,1.417-0.166,2.723-0.496,3.918
			c-0.332,1.196-0.812,2.224-1.439,3.082c-0.627,0.858-1.377,1.518-2.248,1.977c-0.873,0.458-1.854,0.688-2.943,0.688
			c-1.08,0-2.053-0.232-2.916-0.697c-0.861-0.465-1.609-1.131-2.242-1.996s-1.111-1.888-1.438-3.067
			c-0.328-1.179-0.49-2.483-0.49-3.913c0-1.44,0.166-2.76,0.496-3.957c0.332-1.196,0.809-2.219,1.426-3.066
			c0.619-0.849,1.369-1.502,2.25-1.961s1.854-0.688,2.916-0.688c1.08,0,2.062,0.232,2.941,0.697
			c0.881,0.466,1.635,1.128,2.264,1.989c0.627,0.86,1.104,1.884,1.432,3.07S372.638,514.259,372.638,515.689L372.638,515.689z
			 M369.05,515.689c0-1.938-0.318-3.448-0.959-4.528s-1.5-1.619-2.58-1.619c-0.695,0-1.311,0.24-1.842,0.723
			c-0.531,0.481-0.941,1.192-1.229,2.133c-0.287,0.941-0.432,2.038-0.432,3.292c0,1.242,0.143,2.328,0.424,3.257
			c0.283,0.93,0.689,1.641,1.217,2.134c0.525,0.493,1.146,0.74,1.859,0.74c1.08,0,1.939-0.543,2.58-1.629
			S369.05,517.605,369.05,515.689L369.05,515.689z"/>
		<path id="path326" inkscape:connector-curvature="0" d="M378.986,518.491v3.971c0,0.965-0.17,1.688-0.51,2.169
			c-0.34,0.481-0.77,0.724-1.291,0.724c-0.514,0-0.936-0.244-1.266-0.732c-0.33-0.488-0.496-1.209-0.496-2.162v-13.246
			c0-2.137,0.578-3.206,1.734-3.206c0.592,0,1.018,0.25,1.277,0.751c0.262,0.5,0.404,1.24,0.432,2.219
			c0.428-0.979,0.865-1.719,1.312-2.219c0.449-0.501,1.049-0.751,1.797-0.751c0.75,0,1.479,0.25,2.186,0.751
			c0.705,0.5,1.059,1.164,1.059,1.99c0,0.582-0.15,1.063-0.451,1.44c-0.301,0.377-0.625,0.567-0.975,0.567
			c-0.131,0-0.445-0.107-0.947-0.322c-0.5-0.215-0.941-0.322-1.326-0.322c-0.523,0-0.949,0.184-1.281,0.549
			c-0.33,0.366-0.588,0.908-0.771,1.629c-0.182,0.72-0.309,1.576-0.379,2.568C379.019,515.852,378.986,517.063,378.986,518.491
			L378.986,518.491z"/>
	</g>
	<g id="g328">
		<path id="path330" inkscape:connector-curvature="0" fill="#939598" d="M335.806,363.503
			c-3.418-21.538-23.203-40.326-46.229-40.072c-34.361,0.379-51.827,27.323-51.827,57.522c0,34.262,20.243,62.733,36.07,62.733
			c11.671,0,18.229,0.305,28.428,0c15.535-0.464,31.852-28.707,33.928-43.734c0.031-0.224-16.658-4.35-16.666-4.226
			c-0.842,12.832-12.129,29.604-28.555,31.245c-20.815,2.078-32.571-21.391-32.976-42.307c-0.406-20.965,6.159-43.598,31.466-43.598
			c22.534,0,28.106,24.359,29.247,27.586C319.072,369.223,335.839,363.708,335.806,363.503L335.806,363.503z"/>
		<path id="path332" inkscape:connector-curvature="0" fill="#FFFFFF" d="M342.457,361.675
			c-3.418-21.538-21.967-38.498-44.993-38.244c-34.362,0.379-51.827,27.323-51.827,57.522c0,34.262,20.243,62.733,36.07,62.733
			c11.671,0,18.228,0.305,28.427,0c15.535-0.464,31.203-27.193,33.281-42.221c0.029-0.224-16.574-3.684-16.584-3.56
			c-0.842,12.832-12.348,27.348-27.99,29.065c-20.795,2.283-32.571-21.391-32.977-42.307c-0.405-20.965,6.159-43.598,31.466-43.598
			c22.535,0,27.47,21.662,28.609,24.889C326.32,366.525,342.488,361.88,342.457,361.675L342.457,361.675z"/>
	</g>
	<path id="path334" inkscape:connector-curvature="0" fill="#D1D3D4" d="M302.845,443.815c-6.617,0.039-12.466-0.129-21.139-0.129
		c-15.827,0-36.07-28.471-36.07-62.733c0-30.199,17.465-57.143,51.827-57.522c0.839-0.009,1.673,0.004,2.501,0.041
		c-33.247,1.228-50.143,27.78-50.143,57.481c0,34.262,20.244,62.733,36.07,62.733C292.707,443.687,297.777,443.79,302.845,443.815
		L302.845,443.815z M298.106,427.189l0.645-0.063c15.645-1.717,27.15-16.233,27.992-29.065c0.004-0.04,1.758,0.298,4.123,0.78
		c-1.244,12.633-12.602,26.603-27.928,28.285C301.269,427.31,299.658,427.325,298.106,427.189L298.106,427.189z M329.841,365.476
		c-2.205,0.54-3.846,0.866-3.963,0.689c-1.104-3.13-5.779-23.595-26.611-24.831c0.713-0.039,1.443-0.059,2.189-0.059
		C322.757,341.276,328.333,360.632,329.841,365.476z"/>
	<g id="g336">
		
			<circle id="circle338" sodipodi:cx="269.845" sodipodi:cy="425.06699" sodipodi:rx="10.348" sodipodi:ry="10.348" fill="#98090C" cx="269.845" cy="425.067" r="10.348">
		</circle>
		
			<circle id="circle340" sodipodi:cx="257.26999" sodipodi:cy="439.04501" sodipodi:rx="8.552" sodipodi:ry="8.552" fill="#D91921" cx="257.27" cy="439.045" r="8.552">
		</circle>
		
			<circle id="circle342" sodipodi:cx="245.73399" sodipodi:cy="448.327" sodipodi:rx="6.2340002" sodipodi:ry="6.2340002" fill="#98090C" cx="245.734" cy="448.327" r="6.234">
		</circle>
	</g>
</g>
</svg>
