<?xml version="1.0" encoding="UTF-8" standalone="no"?>
<!-- Created with Inkscape (http://www.inkscape.org/) -->
<svg xmlns:dc="http://purl.org/dc/elements/1.1/" xmlns:cc="http://creativecommons.org/ns#" xmlns:rdf="http://www.w3.org/1999/02/22-rdf-syntax-ns#" xmlns:svg="http://www.w3.org/2000/svg" xmlns="http://www.w3.org/2000/svg" xmlns:sodipodi="http://sodipodi.sourceforge.net/DTD/sodipodi-0.dtd" xmlns:inkscape="http://www.inkscape.org/namespaces/inkscape" width="900" height="600" id="svg2715" sodipodi:version="0.32" inkscape:version="0.47 r22583" sodipodi:docname="SClogo.svg" inkscape:output_extension="org.inkscape.output.svg.inkscape" version="1.1">
  <defs id="defs3">
    <inkscape:perspective sodipodi:type="inkscape:persp3d" inkscape:vp_x="0 : 526.18109 : 1" inkscape:vp_y="0 : 1000 : 0" inkscape:vp_z="744.09448 : 526.18109 : 1" inkscape:persp3d-origin="372.04724 : 350.78739 : 1" id="perspective2842"/>
  </defs>
  <sodipodi:namedview inkscape:document-units="mm" id="base" pagecolor="#ffffff" bordercolor="#666666" borderopacity="1.0" inkscape:pageopacity="0.0" inkscape:pageshadow="2" inkscape:zoom="0.5" inkscape:cx="151.31903" inkscape:cy="321.87026" inkscape:current-layer="layer1" inkscape:window-width="1680" inkscape:window-height="988" inkscape:window-x="-8" inkscape:window-y="-8" showgrid="false" inkscape:window-maximized="1"/>
  <metadata id="metadata4">
    <rdf:RDF>
      <cc:Work rdf:about="">
        <dc:format>image/svg+xml</dc:format>
        <dc:type rdf:resource="http://purl.org/dc/dcmitype/StillImage"/>
      </cc:Work>
    </rdf:RDF>
  </metadata>
  <g inkscape:label="Layer 1" inkscape:groupmode="layer" id="layer1" transform="translate(-175.35295,-270.90574)">
    <g id="g9297" transform="matrix(2.1252171,0,0,2.4193869,-108.06146,-717.62791)">
      <path id="text2304" d="m 209.88342,539.40044 c -2e-5,3.11239 -0.5592,5.90888 -1.67754,8.38942 -1.11839,2.48054 -2.75511,4.42287 -4.91018,5.82698 -2.15511,1.40406 -4.71019,2.10612 -7.66526,2.10612 -3.54286,0 -6.46529,-0.95948 -8.76731,-2.87839 -1.63265,-1.38069 -2.95917,-3.22351 -3.97957,-5.52858 -1.0204,-2.30501 -1.5306,-4.54574 -1.5306,-6.72207 0,-1.26369 0.30612,-2.34598 0.91836,-3.24694 0.61224,-0.90095 1.39183,-1.35145 2.33876,-1.35145 0.76734,0 1.41632,0.35106 1.94693,1.05305 0.5306,0.70206 0.98366,1.74344 1.35918,3.12413 0.45713,1.63812 0.95101,3.00707 1.48162,4.10692 0.5306,1.0999 1.27754,2.00673 2.24081,2.72047 0.96324,0.71374 2.22854,1.07061 3.7959,1.07061 2.15507,0 3.90608,-0.71961 5.25303,-2.15884 1.34691,-1.43916 2.02038,-3.23519 2.0204,-5.38816 -2e-5,-1.70827 -0.36328,-3.09483 -1.08979,-4.15963 -0.72655,-1.06474 -1.66532,-1.87793 -2.81631,-2.43956 -1.15103,-0.56164 -2.6898,-1.15838 -4.6163,-1.79023 -2.5796,-0.86584 -4.73877,-1.87792 -6.47752,-3.03636 -1.73878,-1.15832 -3.11836,-2.7379 -4.13876,-4.73876 -1.02041,-2.0008 -1.53061,-4.48721 -1.5306,-7.45923 -1e-5,-2.83154 0.53877,-5.34718 1.61632,-7.54694 1.07754,-2.19969 2.63671,-3.89046 4.67752,-5.07226 2.0408,-1.18174 4.44078,-1.77261 7.19997,-1.77267 2.20405,6e-5 4.11016,0.39203 5.71834,1.17593 1.60813,0.78395 2.94281,1.82532 4.00406,3.12406 1.06119,1.29886 1.8367,2.66194 2.32652,4.08943 0.48976,1.42754 0.73466,2.81991 0.73469,4.17712 -3e-5,1.24033 -0.30615,2.35773 -0.91836,3.35226 -0.61227,0.99465 -1.37553,1.49188 -2.28979,1.49188 -0.83268,0 -1.46532,-0.29834 -1.89795,-0.89514 -0.43268,-0.59668 -0.90206,-1.57372 -1.40815,-2.93099 -0.65309,-1.94233 -1.43676,-3.45757 -2.35101,-4.54574 -0.9143,-1.08816 -2.38368,-1.63224 -4.40815,-1.63224 -1.87755,0 -3.39183,0.59093 -4.54283,1.77261 -1.15102,1.18186 -1.72653,2.60347 -1.72652,4.26495 -10e-6,1.02969 0.19591,1.91896 0.58775,2.66775 0.39182,0.74891 0.9306,1.39244 1.61632,1.93065 0.6857,0.53827 1.37957,0.95948 2.08162,1.26363 0.70202,0.30427 1.8612,0.74891 3.47754,1.33391 2.02445,0.67869 3.8571,1.42754 5.49793,2.24653 1.64078,0.81906 3.03669,1.81365 4.18773,2.98371 1.15099,1.17006 2.04894,2.6502 2.69386,4.44042 0.64487,1.79022 0.96732,3.9841 0.96734,6.58164 l 0,0 z m 22.01622,-36.89237 c 3.7224,6e-5 6.91831,1.08235 9.58772,3.24694 2.66933,2.1647 4.68973,5.24198 6.06117,9.2319 1.3714,3.98997 2.0571,8.67607 2.05715,14.05836 -5e-5,3.97829 -0.37554,7.59385 -1.12652,10.84659 -0.75107,3.25281 -1.87759,6.07273 -3.37961,8.45963 -1.50205,2.38697 -3.34691,4.2123 -5.53462,5.47593 -2.1878,1.26369 -4.69391,1.89554 -7.51835,1.89554 -2.80817,0 -5.32244,-0.6494 -7.54282,-1.9482 -2.22041,-1.29874 -4.07346,-3.12994 -5.55916,-5.49348 -1.48571,-2.36354 -2.60815,-5.20682 -3.36733,-8.52984 -0.75918,-3.32296 -1.13877,-6.91509 -1.13877,-10.77632 0,-3.95487 0.39592,-7.58204 1.18776,-10.8817 0.79182,-3.29954 1.93876,-6.10771 3.44079,-8.42452 1.50203,-2.31669 3.33059,-4.08936 5.48569,-5.31801 2.15508,-1.22853 4.60404,-1.84276 7.3469,-1.84282 l 0,0 z m 10.33465,26.46705 c -4e-5,-3.76766 -0.42452,-7.03215 -1.27347,-9.79353 -0.849,-2.76133 -2.06124,-4.84989 -3.63673,-6.26575 -1.57553,-1.41574 -3.38365,-2.12361 -5.42445,-2.12367 -1.45307,6e-5 -2.79592,0.39203 -4.02855,1.17593 -1.23266,0.78401 -2.29388,1.92477 -3.18366,3.42246 -0.8898,1.4977 -1.59183,3.41079 -2.10611,5.73922 -0.51429,2.32844 -0.77143,4.94359 -0.77142,7.84534 -1e-5,2.92517 0.25713,5.56956 0.77142,7.93304 0.51428,2.3636 1.2408,4.32348 2.17958,5.87964 0.93876,1.55623 2.0163,2.72041 3.23264,3.49268 1.2163,0.77227 2.55099,1.15838 4.00406,1.15838 1.86121,0 3.57141,-0.66695 5.13059,-2.00086 1.55915,-1.33384 2.79994,-3.39317 3.72241,-6.17798 0.92243,-2.78475 1.38365,-6.21303 1.38369,-10.2849 l 0,0 z m 35.09372,-17.55111 -14.32648,0 0,13.16329 11.97548,0 c 1.11017,6e-5 1.93873,0.35693 2.48567,1.07067 0.54694,0.71374 0.82041,1.66735 0.82041,2.86077 0,1.19354 -0.27757,2.14128 -0.83266,2.84328 -0.55513,0.70206 -1.37959,1.05312 -2.47342,1.05306 l -11.97548,0 0,16.95437 c 0,2.15296 -0.33879,3.7501 -1.0163,4.79148 -0.67755,1.04137 -1.54694,1.56203 -2.60818,1.56203 -1.07753,0 -1.95508,-0.52653 -2.63263,-1.57959 -0.67755,-1.05305 -1.01634,-2.64438 -1.01634,-4.77392 l 0,-39.59523 c 0,-1.49764 0.1551,-2.72041 0.46531,-3.66821 0.31021,-0.94768 0.79591,-1.63806 1.45716,-2.07101 0.66121,-0.4329 1.50611,-0.64934 2.53466,-0.6494 l 17.1428,0 c 1.15913,6e-5 2.02037,0.36861 2.58365,1.10571 0.56324,0.73723 0.84486,1.70252 0.8449,2.89594 -4e-5,1.21691 -0.28166,2.19394 -0.8449,2.93105 -0.56328,0.73716 -1.42452,1.10577 -2.58365,1.10571 l 0,0 z m 32.13045,0.56164 -7.93466,0 0,37.3838 c -4e-5,2.15296 -0.3347,3.7501 -1.0041,4.79148 -0.6694,1.04137 -1.5347,1.56203 -2.59589,1.56203 -1.07758,0 -1.95512,-0.52653 -2.63263,-1.57959 -0.67755,-1.05305 -1.01634,-2.64438 -1.01634,-4.77392 l 0,-37.3838 -7.93463,0 c -1.24083,6e-5 -2.16326,-0.39192 -2.76733,-1.17593 -0.60407,-0.78389 -0.90613,-1.8194 -0.90613,-3.10657 0,-1.33379 0.31426,-2.38685 0.94287,-3.15918 0.62856,-0.77221 1.53875,-1.15831 2.73059,-1.15837 l 23.11825,0 c 1.25709,6e-5 2.19177,0.3979 2.80404,1.19348 0.61222,0.79569 0.91833,1.83707 0.91837,3.12407 -4e-5,1.28717 -0.3102,2.32268 -0.93062,3.10657 -0.62042,0.78401 -1.55104,1.17599 -2.79179,1.17593 l 0,0 z m 38.6202,26.60742 c -4e-5,1.63811 -0.28166,3.41078 -0.8449,5.318 -0.56328,1.90723 -1.44902,3.77934 -2.65712,5.61635 -1.20819,1.83701 -2.75104,3.32884 -4.62854,4.47553 -1.87759,1.14669 -4.0653,1.72001 -6.56322,1.72001 -1.89389,0 -3.61634,-0.25742 -5.16733,-0.77227 -1.55104,-0.51479 -2.95918,-1.31629 -4.22446,-2.40446 -1.26533,-1.08816 -2.42858,-2.52151 -3.48982,-4.30005 -0.94692,-1.6147 -1.75508,-3.42241 -2.42444,-5.42327 -0.6694,-2.0008 -1.17145,-4.13621 -1.50615,-6.40617 -0.33466,-2.26991 -0.50201,-4.68023 -0.50201,-7.23104 0,-4.14202 0.42038,-7.85115 1.26123,-11.12738 0.8408,-3.27618 2.04485,-6.07848 3.61219,-8.40698 1.56734,-2.32837 3.40405,-4.10104 5.51018,-5.318 2.10613,-1.21679 4.35097,-1.82521 6.73467,-1.82527 2.90609,6e-5 5.49383,0.8308 7.76322,2.49222 2.26934,1.66154 4.00812,3.71506 5.21631,6.16043 1.2081,2.44549 1.81218,4.75643 1.81222,6.9327 -4e-5,1.19348 -0.29391,2.2466 -0.8816,3.15918 -0.58781,0.91269 -1.29801,1.36901 -2.13062,1.36901 -0.93062,0 -1.62861,-0.3159 -2.09388,-0.94774 -0.46531,-0.63185 -0.9837,-1.72001 -1.55509,-3.26456 -0.94697,-2.55069 -2.06124,-4.45791 -3.34282,-5.7216 -1.28167,-1.26364 -2.86125,-1.89548 -4.73876,-1.89554 -2.98776,6e-5 -5.36732,1.62643 -7.13875,4.87918 -1.77142,3.25287 -2.65712,7.87463 -2.65712,13.8654 0,4.00166 0.39184,7.33049 1.17551,9.98656 0.78367,2.65607 1.89384,4.63932 3.33057,5.9498 1.43673,1.31048 3.11834,1.96575 5.04491,1.96575 2.08974,0 3.85708,-0.74298 5.302,-2.22899 1.44487,-1.48601 2.53465,-3.66821 3.26938,-6.54659 0.31017,-1.35727 0.69385,-2.46299 1.15101,-3.31715 0.45712,-0.85411 1.19181,-1.28119 2.20406,-1.28119 0.86525,0 1.60813,0.43289 2.22854,1.29874 0.62038,0.86591 0.93059,1.94233 0.93063,3.22939 l 0,0 z m 29.51007,10.42538 -1.7143,-6.45883 -14.59585,0 -1.71425,6.59925 c -0.6694,2.57412 -1.24083,4.31168 -1.7143,5.21263 -0.47346,0.90095 -1.24898,1.35146 -2.32651,1.35146 -0.91428,0 -1.72244,-0.47974 -2.42449,-1.43916 -0.70204,-0.95949 -1.05304,-2.04765 -1.05304,-3.26455 0,-0.702 0.0816,-1.42749 0.24488,-2.17633 0.1633,-0.74885 0.43267,-1.79017 0.80816,-3.12407 l 9.18365,-33.41731 c 0.26122,-0.95942 0.57548,-2.11192 0.94283,-3.45757 0.36734,-1.34553 0.75917,-2.46293 1.1755,-3.35226 0.41633,-0.88915 0.96327,-1.60876 1.64082,-2.15877 0.67755,-0.5499 1.51425,-0.82481 2.5102,-0.82487 1.01221,6e-5 1.85711,0.27497 2.53466,0.82487 0.67755,0.55001 1.22449,1.25788 1.64082,2.12367 0.41633,0.8659 0.76733,1.79615 1.05304,2.79068 0.28572,0.99459 0.64896,2.32262 1.08982,3.98404 l 9.37955,33.20667 c 0.73464,2.52739 1.10198,4.3644 1.10202,5.51103 -4e-5,1.19348 -0.34698,2.28752 -1.04079,3.28211 -0.69394,0.99453 -1.53065,1.49182 -2.51021,1.49182 -0.57147,0 -1.06124,-0.14623 -1.46937,-0.43876 -0.40822,-0.29253 -0.75107,-0.69038 -1.02859,-1.19349 -0.27757,-0.50316 -0.57553,-1.27537 -0.89385,-2.31675 -0.3184,-1.04137 -0.59187,-1.95988 -0.8204,-2.75551 l 0,0 z m -14.39996,-14.28662 10.72649,0 -5.41221,-21.23681 -5.31428,21.23681 z m 50.7916,-22.74618 -7.93466,0 0,37.3838 c 0,2.15296 -0.3347,3.7501 -1.00406,4.79148 -0.6694,1.04137 -1.5347,1.56203 -2.59593,1.56203 -1.07754,0 -1.95508,-0.52653 -2.63263,-1.57959 -0.67755,-1.05305 -1.01635,-2.64438 -1.0163,-4.77392 l 0,-37.3838 -7.93467,0 c -1.24083,6e-5 -2.16326,-0.39192 -2.76733,-1.17593 -0.60408,-0.78389 -0.90613,-1.8194 -0.90613,-3.10657 0,-1.33379 0.3143,-2.38685 0.94286,-3.15918 0.62857,-0.77221 1.53876,-1.15831 2.7306,-1.15837 l 23.11825,0 c 1.25709,6e-5 2.19181,0.3979 2.80408,1.19348 0.61218,0.79569 0.91833,1.83707 0.91833,3.12407 0,1.28717 -0.31021,2.32268 -0.93058,3.10657 -0.62046,0.78401 -1.55104,1.17599 -2.79183,1.17593 l 0,0 z m 31.00393,37.0328 -1.71429,-6.45883 -14.59586,0 -1.71425,6.59925 c -0.6694,2.57412 -1.24083,4.31168 -1.71429,5.21263 -0.47346,0.90095 -1.24898,1.35146 -2.32652,1.35146 -0.91428,0 -1.72244,-0.47974 -2.42448,-1.43916 -0.70204,-0.95949 -1.05304,-2.04765 -1.05304,-3.26455 0,-0.702 0.0816,-1.42749 0.24488,-2.17633 0.16329,-0.74885 0.43267,-1.79017 0.80816,-3.12407 l 9.18364,-33.41731 c 0.26123,-0.95942 0.57549,-2.11192 0.94283,-3.45757 0.36734,-1.34553 0.75918,-2.46293 1.17551,-3.35226 0.41632,-0.88915 0.96326,-1.60876 1.64081,-2.15877 0.67755,-0.5499 1.51426,-0.82481 2.51021,-0.82487 1.01221,6e-5 1.85711,0.27497 2.53466,0.82487 0.67755,0.55001 1.22449,1.25788 1.64081,2.12367 0.41633,0.8659 0.76733,1.79615 1.05305,2.79068 0.28571,0.99459 0.64896,2.32262 1.08982,3.98404 l 9.37954,33.20667 c 0.73465,2.52739 1.10199,4.3644 1.10203,5.51103 -4e-5,1.19348 -0.34699,2.28752 -1.0408,3.28211 -0.69393,0.99453 -1.53064,1.49182 -2.51021,1.49182 -0.57147,0 -1.06123,-0.14623 -1.46937,-0.43876 -0.40821,-0.29253 -0.75106,-0.69038 -1.02859,-1.19349 -0.27756,-0.50316 -0.57552,-1.27537 -0.89384,-2.31675 -0.3184,-1.04137 -0.59187,-1.95988 -0.82041,-2.75551 l 0,0 z m -14.39996,-14.28662 10.7265,0 -5.41221,-21.23681 -5.31429,21.23681 z m 34.60392,-25.90541 0,37.45406 14.74281,0 c 1.17546,0 2.0775,0.40953 2.70611,1.22859 0.62852,0.81906 0.94282,1.84869 0.94282,3.08896 0,1.2637 -0.3102,2.28752 -0.93058,3.07147 -0.62046,0.78396 -1.52654,1.17593 -2.71835,1.17593 l -17.55913,0 c -1.58364,0 -2.7224,-0.50316 -3.4163,-1.50943 -0.69389,-1.00627 -1.04079,-2.63265 -1.04079,-4.87919 l 0,-39.63039 c 0,-2.10606 0.3306,-3.68565 0.99181,-4.73877 0.66121,-1.05299 1.5306,-1.57952 2.60818,-1.57958 1.09383,6e-5 1.97957,0.52072 2.65712,1.56203 0.67751,1.04144 1.0163,2.62684 1.0163,4.75632 l 0,0 z m 46.11404,40.19203 -1.71425,-6.45883 -14.59585,0 -1.7143,6.59925 c -0.66936,2.57412 -1.24079,4.31168 -1.71425,5.21263 -0.47346,0.90095 -1.24898,1.35146 -2.32651,1.35146 -0.91429,0 -1.72245,-0.47974 -2.42449,-1.43916 -0.70204,-0.95949 -1.05304,-2.04765 -1.05304,-3.26455 0,-0.702 0.0816,-1.42749 0.24488,-2.17633 0.16325,-0.74885 0.43267,-1.79017 0.80816,-3.12407 l 9.18365,-33.41731 c 0.26118,-0.95942 0.57548,-2.11192 0.94282,-3.45757 0.36735,-1.34553 0.75918,-2.46293 1.17551,-3.35226 0.41632,-0.88915 0.96326,-1.60876 1.64081,-2.15877 0.67755,-0.5499 1.51426,-0.82481 2.51021,-0.82487 1.01221,6e-5 1.85711,0.27497 2.53466,0.82487 0.67755,0.55001 1.22445,1.25788 1.64082,2.12367 0.41628,0.8659 0.76732,1.79615 1.05304,2.79068 0.28571,0.99459 0.64896,2.32262 1.08978,3.98404 l 9.37954,33.20667 c 0.73469,2.52739 1.10203,4.3644 1.10207,5.51103 -4e-5,1.19348 -0.34699,2.28752 -1.04084,3.28211 -0.69389,0.99453 -1.53064,1.49182 -2.51016,1.49182 -0.57148,0 -1.06128,-0.14623 -1.46942,-0.43876 -0.40817,-0.29253 -0.75102,-0.69038 -1.02855,-1.19349 -0.27756,-0.50316 -0.57552,-1.27537 -0.89388,-2.31675 -0.31836,-1.04137 -0.59183,-1.95988 -0.82041,-2.75551 l 0,0 z m -14.39992,-14.28662 10.7265,0 -5.41221,-21.23681 -5.31429,21.23681 z m 6.31834,-40.82382 1.10203,2.9486 c 0.44082,1.00633 0.66121,1.69665 0.66125,2.07101 -4e-5,0.58512 -0.35104,0.87759 -1.05308,0.87759 -1.07754,0 -2.08164,-0.33932 -3.01222,-1.01801 -0.45716,-0.32752 -1.58368,-1.71995 -3.37956,-4.17713 -1.79592,-2.45711 -2.6939,-3.83781 -2.6939,-4.14208 0,-0.35094 0.41633,-0.52647 1.24898,-0.52653 l 3.30613,0 c 0.96322,6e-5 1.68976,0.24581 2.17956,0.73717 0.4898,0.49148 1.03674,1.56796 1.64081,3.22938 l 0,0 z" style="font-size:12px;font-style:normal;font-weight:normal;fill:#b50027;fill-opacity:1;stroke:none;font-family:Arial Rounded MT Bold"/>
      <g id="g9291">
        <path style="fill:#b50027;fill-rule:evenodd" d="m 407.67491,487.65834 23.16262,-22.69937 3.70602,3.24277 -19.4566,19.4566 -7.41204,0 z m -125.07812,125.54137 42.61922,-43.08247 7.41203,0 -46.78848,46.78849 -3.24277,-3.70602 z" id="path2621"/>
        <path style="fill:#b50027;fill-rule:evenodd" d="m 373.39424,487.65834 40.30295,-39.8397 3.70602,3.24276 -37.06018,36.59694 -6.94879,0 z m -108.40103,108.40103 25.94213,-25.94213 6.94878,0 -29.1849,29.64815 -3.70601,-3.70602 z" id="path2623"/>
        <path style="fill:#b50027;fill-rule:evenodd" d="m 384.97555,487.65834 34.74392,-34.28067 3.24277,3.24276 -31.0379,31.03791 -6.94879,0 z m -113.96006,114.42331 31.50115,-31.96441 6.94879,0 -35.20718,35.20718 -3.24276,-3.24277 z" id="path2625"/>
        <path style="fill:#b50027;fill-rule:evenodd" d="m 396.55686,487.65834 28.72164,-28.72165 3.24277,3.70602 -25.01563,25.01563 -6.94878,0 z m -119.98235,119.98234 37.06019,-37.52344 7.41203,0 -40.7662,41.22946 -3.70602,-3.70602 z" id="path2627"/>
      </g>
    </g>
  </g>
</svg>